:SAMPLES-PER-SECOND 30
:FULLY-SPECIFIED
:DEGREES
1234
root  69.0075 38.9371 -31.2949 6.12404 3.03047 2.85925
RightUpLeg  -17.2565 -9.82061 -4.85316
RightLeg  36.6412 -9.30636 -7.60064
RightFoot  -13.0391 0.0280433 8.59852
RightToes  0.00048216 0.542163 -0.142577
Spine  41.1413 -1.28661 0.679143
Spine1  9.56658 -0.627201 -1.239
HEad  -17.1323 0.722296 -2.17443
LeftShoulder1  12.2093 -21.1539 -42.9946
LeftArm  -13.7304 -24.4697 -29.7265
LeftForeArm  29.6795 -3.53608 -5.3942
LeftHand  -0.25398 0.0180481 5.50724
RightShoulder  8.45487 16.6406 35.9445
RightArm  -3.49411 34.1799 35.6396
RightForeArm  1.04187 6.77734 9.53855
RightHand  -3.0801 7.37293 -27.8924
LeftUpLeg  -20.7947 3.2179 -1.7848
LeftLeg  -1.81106 26.2327 -8.89333
LeftFoot  11.8586 -1.65315 7.6881
LeftToes  1.06244e-005 4.65855e-005 -8.18506e-006
1235
root  68.6157 38.9582 -31.5676 5.34576 3.91823 3.00488
RightUpLeg  -13.4192 -9.24368 -4.25163
RightLeg  31.5768 -10.4348 -7.08536
RightFoot  -16.3468 0.185772 6.84834
RightToes  0.00048216 0.542163 -0.142577
Spine  39.2197 -1.22587 1.10076
Spine1  9.08483 -0.551694 -0.993886
HEad  -15.7558 0.233709 -1.59329
LeftShoulder1  12.5178 -20.5555 -45.3072
LeftArm  -12.9989 -18.0783 -27.7862
LeftForeArm  28.2961 -4.11567 -5.5835
LeftHand  -0.25398 0.0180481 5.50724
RightShoulder  8.44463 16.1398 36.9421
RightArm  -2.72026 28.4571 36.1667
RightForeArm  0.776389 6.63115 9.57979
RightHand  -3.04625 7.32691 -27.6952
LeftUpLeg  -19.42 2.82839 -1.56963
LeftLeg  -3.90055 25.8486 -9.2946
LeftFoot  12.927 -1.40635 6.16586
LeftToes  1.06244e-005 4.65855e-005 -8.18506e-006
1236
root  68.2902 39.0152 -31.9175 4.81041 4.32935 2.57318
RightUpLeg  -11.6236 -10.6556 -3.15667
RightLeg  27.8705 -10.2634 -6.07118
RightFoot  -17.2258 0.0571434 3.29046
RightToes  0.00048216 0.542163 -0.142577
Spine  37.5596 -1.29257 2.74643
Spine1  8.49117 0.0455322 -1.59138
HEad  -14.8635 -0.732684 -1.40972
LeftShoulder1  12.7902 -20.1241 -47.2076
LeftArm  -12.7302 -12.4326 -25.8259
LeftForeArm  27.0796 -4.67289 -5.56226
LeftHand  -0.25398 0.0180481 5.50724
RightShoulder  8.16563 15.1809 37.645
RightArm  -2.95353 23.0613 36.5667
RightForeArm  0.853572 6.77315 9.33213
RightHand  -2.94865 7.10929 -27.288
LeftUpLeg  -18.6599 2.72523 -0.834348
LeftLeg  -5.32948 25.3 -9.2711
LeftFoot  13.3946 -0.953712 3.97226
LeftToes  1.06244e-005 4.65855e-005 -8.18506e-006
1237
root  68.0498 39.0997 -32.3062 4.43523 4.11519 1.91791
RightUpLeg  -11.2741 -13.7912 -2.24268
RightLeg  26.1393 -7.71125 -4.32355
RightFoot  -16.5366 -0.0595661 1.16469
RightToes  0.00048216 0.542163 -0.142577
Spine  35.5007 -1.39209 4.72733
Spine1  8.79731 0.754971 -2.60686
HEad  -14.8004 -1.34016 -1.68384
LeftShoulder1  12.9509 -19.675 -48.7597
LeftArm  -12.914 -7.56199 -23.6616
LeftForeArm  26.1909 -5.6407 -5.37688
LeftHand  -0.25398 0.0180481 5.50724
RightShoulder  7.9674 14.3538 38.5286
RightArm  -3.43737 18.5208 36.11
RightForeArm  0.723169 7.34339 9.08378
RightHand  -2.62464 6.19811 -26.2317
LeftUpLeg  -18.4008 2.93747 0.23119
LeftLeg  -5.87249 25.2769 -8.96179
LeftFoot  12.9607 -0.16541 0.382753
LeftToes  1.06244e-005 4.65855e-005 -8.18506e-006
1238
root  67.8333 39.1987 -32.6777 3.78838 3.58821 1.47723
RightUpLeg  -10.7877 -16.8129 -1.85284
RightLeg  25.075 -4.60546 -2.57715
RightFoot  -15.577 -0.0766231 0.789458
RightToes  0.00048216 0.542163 -0.142577
Spine  33.6359 -1.00459 5.34907
Spine1  9.41948 1.06986 -2.06841
HEad  -14.583 -1.19385 -2.3701
LeftShoulder1  13.0968 -19.0421 -50.6989
LeftArm  -12.9967 -2.8619 -21.1501
LeftForeArm  24.9434 -7.26317 -5.26488
LeftHand  -0.25398 0.0180481 5.50724
RightShoulder  7.72914 13.7508 38.7043
RightArm  -3.76331 14.4784 35.5441
RightForeArm  0.249426 7.90776 8.91883
RightHand  -2.25133 5.03835 -25.0491
LeftUpLeg  -18.0291 3.60208 1.31598
LeftLeg  -5.44791 26.1667 -8.71924
LeftFoot  11.4668 0.710738 -3.88868
LeftToes  1.06244e-005 4.65855e-005 -8.18506e-006
1239
root  67.5931 39.3198 -33.0024 2.67345 3.22586 1.37195
RightUpLeg  -9.35225 -18.5591 -1.83797
RightLeg  23.4753 -2.7602 -1.5537
RightFoot  -14.767 -0.0883242 0.372422
RightToes  0.00048216 0.542163 -0.142577
Spine  32.373 -0.505317 4.76379
Spine1  9.70236 0.916131 -0.586526
HEad  -13.4111 -0.529703 -2.81626
LeftShoulder1  13.023 -18.3314 -52.0332
LeftArm  -12.9354 2.00426 -19.1807
LeftForeArm  23.5517 -8.90287 -5.11632
LeftHand  -0.25398 0.0180481 5.50724
RightShoulder  7.51903 13.3837 38.4492
RightArm  -4.41959 10.2793 35.2598
RightForeArm  -0.268324 8.28955 8.68586
RightHand  -2.03097 4.29628 -24.3409
LeftUpLeg  -17.3255 4.46106 2.12072
LeftLeg  -3.77668 27.0951 -8.24944
LeftFoot  9.18288 1.04959 -6.07845
LeftToes  1.06244e-005 4.65855e-005 -8.18506e-006
1240
root  67.3541 39.4679 -33.2629 1.40121 3.30859 1.47235
RightUpLeg  -7.38589 -18.9737 -2.00118
RightLeg  21.5113 -2.54557 -1.17672
RightFoot  -13.9162 -0.104687 -0.468874
RightToes  0.00048216 0.542163 -0.142577
Spine  31.3156 -0.386806 4.20848
Spine1  9.56944 0.565587 0.347793
HEad  -11.4734 0.126731 -2.93151
LeftShoulder1  12.6226 -17.659 -52.0379
LeftArm  -13.0995 6.56887 -18.2225
LeftForeArm  23.2705 -9.66713 -4.7275
LeftHand  -0.25398 0.0180481 5.50724
RightShoulder  7.34666 13.0141 38.4071
RightArm  -5.42712 5.6086 34.9463
RightForeArm  -0.475711 9.00027 8.27308
RightHand  -1.8691 3.77546 -23.6756
LeftUpLeg  -16.7107 5.1775 2.3649
LeftLeg  -0.370773 26.2213 -6.7915
LeftFoot  6.7254 0.695886 -4.60191
LeftToes  1.06244e-005 4.65855e-005 -8.18506e-006
1241
root  67.1639 39.6272 -33.4396 0.359024 3.74823 1.71167
RightUpLeg  -5.4442 -17.7865 -2.55949
RightLeg  19.7232 -4.13352 -0.761604
RightFoot  -13.0212 -0.0990778 -0.712306
RightToes  0.00048216 0.542163 -0.142577
Spine  29.8571 -0.559904 4.07148
Spine1  9.26625 0.21699 0.582196
HEad  -9.26915 0.572071 -3.16099
LeftShoulder1  12.0687 -17.0153 -51.3346
LeftArm  -13.592 10.3161 -17.5779
LeftForeArm  24.1032 -9.46723 -4.22766
LeftHand  -0.25398 0.0180481 5.50724
RightShoulder  7.14601 12.5422 38.4641
RightArm  -6.3691 0.503396 34.265
RightForeArm  -0.479583 10.3685 7.71455
RightHand  -1.6036 2.90869 -22.4417
LeftUpLeg  -16.3685 7.18924 1.41402
LeftLeg  4.48511 21.122 -4.22116
LeftFoot  4.43786 0.199239 -1.63546
LeftToes  1.06244e-005 4.65855e-005 -8.18506e-006
1242
root  67.0425 39.7681 -33.5353 -0.37616 4.12978 2.04999
RightUpLeg  -3.72618 -16.0348 -3.44824
RightLeg  18.0941 -6.1801 0.0250994
RightFoot  -12.2964 -0.0856749 -0.293137
RightToes  0.00048216 0.542163 -0.142577
Spine  27.9453 -0.647757 4.07111
Spine1  8.78651 0.04513 0.619824
HEad  -6.72798 0.899338 -3.49993
LeftShoulder1  11.5362 -16.4268 -50.5314
LeftArm  -13.8631 13.3524 -16.6249
LeftForeArm  23.9605 -8.90091 -3.82108
LeftHand  -0.25398 0.0180481 5.50724
RightShoulder  6.75051 11.8516 37.9125
RightArm  -7.67503 -4.62317 33.7438
RightForeArm  -0.49106 11.6548 7.09854
RightHand  -1.33876 1.9486 -21.2104
LeftUpLeg  -16.0159 12.0707 -0.878007
LeftLeg  9.50695 11.4831 -1.3778
LeftFoot  2.04919 0.0353169 -0.439724
LeftToes  1.06244e-005 4.65855e-005 -8.18506e-006
1243
root  66.9853 39.8746 -33.5859 -0.938843 4.02119 2.33862
RightUpLeg  -2.26124 -14.4025 -4.32726
RightLeg  16.5051 -7.64808 1.08412
RightFoot  -11.7517 -0.0794463 -0.00751087
RightToes  0.00048216 0.542163 -0.142577
Spine  25.9781 -0.547545 4.32553
Spine1  8.01787 0.265819 0.256406
HEad  -3.66103 1.15908 -3.53331
LeftShoulder1  10.9602 -15.9181 -49.2708
LeftArm  -13.9719 15.9649 -15.6457
LeftForeArm  21.9961 -8.34718 -3.51415
LeftHand  -0.25398 0.0180481 5.50724
RightShoulder  6.18074 11.003 36.604
RightArm  -10.1536 -9.45337 33.7188
RightForeArm  -0.726007 12.201 6.4908
RightHand  -1.26655 1.62091 -20.9817
LeftUpLeg  -15.0675 15.5526 -2.41517
LeftLeg  13.4301 3.93509 0.379263
LeftFoot  -0.497352 0.121787 -1.26864
LeftToes  1.06244e-005 4.65855e-005 -8.18506e-006
1244
root  66.9784 39.9515 -33.6207 -1.41074 3.38214 2.41943
RightUpLeg  -1.09178 -13.0898 -4.89897
RightLeg  15.0758 -8.21778 2.14192
RightFoot  -11.2816 -0.0764297 0.030615
RightToes  0.00048216 0.542163 -0.142577
Spine  24.1181 -0.378125 4.99642
Spine1  7.15982 0.799499 -0.621547
HEad  -0.581824 1.40151 -3.42867
LeftShoulder1  10.1774 -15.3099 -47.206
LeftArm  -14.4388 18.1066 -15.0594
LeftForeArm  19.7527 -7.9316 -3.1248
LeftHand  -0.25398 0.0180481 5.50724
RightShoulder  5.61651 10.2114 34.9916
RightArm  -13.407 -13.7466 33.5476
RightForeArm  -1.27773 12.233 5.86477
RightHand  -1.37655 2.01064 -21.6022
LeftUpLeg  -13.2101 15.0053 -2.20729
LeftLeg  16.1042 2.03513 1.03296
LeftFoot  -2.57408 0.191304 -2.27825
LeftToes  1.06244e-005 4.65855e-005 -8.18506e-006
1245
root  66.9962 39.9948 -33.6325 -1.74921 2.61441 2.28107
RightUpLeg  -0.211981 -12.0653 -5.13116
RightLeg  13.9325 -8.28752 2.98586
RightFoot  -10.9555 -0.0746984 0.150626
RightToes  0.00048216 0.542163 -0.142577
Spine  22.1271 -0.216632 5.60474
Spine1  6.54929 1.20415 -1.17935
HEad  1.93941 1.86983 -3.52908
LeftShoulder1  9.14468 -14.3163 -44.7022
LeftArm  -15.352 19.6632 -14.7105
LeftForeArm  18.6595 -7.88965 -2.61991
LeftHand  -0.25398 0.0180481 5.50724
RightShoulder  5.11086 9.52041 33.2996
RightArm  -16.5199 -17.1208 32.4765
RightForeArm  -1.88029 12.0823 5.21325
RightHand  -1.53632 2.64034 -22.2332
LeftUpLeg  -10.9244 12.4518 -1.41394
LeftLeg  17.8925 2.91111 1.38042
LeftFoot  -3.83096 0.193471 -2.59217
LeftToes  1.06244e-005 4.65855e-005 -8.18506e-006
